<?xml version="1.0" encoding="UTF-8"?>
<svg version="1.1" xmlns="http://www.w3.org/2000/svg" width="500" height="500">
<path d="M0 0 C165 0 330 0 500 0 C500 165 500 330 500 500 C335 500 170 500 0 500 C0 335 0 170 0 0 Z " fill="#FEFEFE" transform="translate(0,0)"/>
<path d="M0 0 C6.45192802 5.49100257 6.45192802 5.49100257 9.08203125 7.93359375 C20.87192085 18.83127549 35.43542587 26.99094303 51 31 C51 36.94 51 42.88 51 49 C55.29 49 59.58 49 64 49 C64.14927237 55.7351695 63.78954844 61.90511148 62.4375 68.5 C62.26186523 69.35875732 62.08623047 70.21751465 61.90527344 71.10229492 C57.84254938 89.6969391 49.48520571 107.61429786 37 122 C36.54496094 122.60972656 36.08992188 123.21945313 35.62109375 123.84765625 C28.50216851 133.17663589 14.64348118 141.88401425 3.3671875 144.64453125 C-8.04375741 145.64937565 -19.44862472 137.79748842 -27.875 130.8125 C-44.1285642 116.57516941 -53.012742 97.39915437 -59 77 C-59.35964844 75.78570312 -59.71929687 74.57140625 -60.08984375 73.3203125 C-62.70260989 63.78876221 -63.17993418 54.58556402 -63.1875 44.75 C-63.18830566 43.71294922 -63.18911133 42.67589844 -63.18994141 41.60742188 C-63.13400264 34.13400264 -63.13400264 34.13400264 -62 33 C-60.23061586 32.79928452 -58.4593277 32.61535818 -56.6875 32.4375 C-33.84673839 29.02393563 -15.89589096 15.89589096 0 0 Z " fill="#2B9FD7" transform="translate(250,105)"/>
<path d="M0 0 C0 8.91 0 17.82 0 27 C1.98 27.33 3.96 27.66 6 28 C8.30078125 29.55859375 8.30078125 29.55859375 10.3125 31.4375 C10.98925781 32.05496094 11.66601562 32.67242187 12.36328125 33.30859375 C15.81954041 36.88033651 15.26137522 40.56754182 15.23046875 45.30859375 C14.95168068 48.56427143 13.92052001 50.38809279 12 53 C10.2609966 57.79095438 11.97997848 61.27129719 13.9375 65.6875 C17 72.81069845 17 72.81069845 17 75 C11.39 75 5.78 75 0 75 C0 85.89 0 96.78 0 108 C-13.84191432 105.23161714 -24.25411347 94.82013949 -31.9699707 83.48364258 C-42.96621476 66.44292487 -49.35597782 45.29073592 -49 25 C-48.1028125 24.731875 -47.205625 24.46375 -46.28125 24.1875 C-34.05187024 20.34686834 -9.9172078 0 0 0 Z " fill="#1C4E83" transform="translate(251,126)"/>
<path d="M0 0 C1.010625 0.78375 2.02125 1.5675 3.0625 2.375 C16.70454248 12.50499301 30.24750096 19.69900038 46 26 C46 29.96 46 33.92 46 38 C47.98 38 49.96 38 52 38 C53.50253104 59.03543461 41.76782502 83.87660881 28.40185547 99.38696289 C21.48068377 107.04106111 12.41140636 115.04059657 2 117 C-9.07857912 116.39943112 -19.62955662 107.89652763 -26.9140625 99.8984375 C-36.49879686 88.53738171 -42.29307847 75.92894647 -47 62 C-47.31839844 61.071875 -47.63679687 60.14375 -47.96484375 59.1875 C-51.39139131 48.54985983 -52.32331295 38.13633484 -52 27 C-50.7625 26.68869141 -50.7625 26.68869141 -49.5 26.37109375 C-30.90360811 21.41067225 -14.21101287 13.17118266 0 0 Z M-5.1875 9 C-18.12938983 18.85239689 -32.3053474 25.71052918 -48 30 C-48.51432318 55.65901191 -38.19620741 81.92018065 -20.875 100.6875 C-15.61916835 105.77793835 -6.57784469 113 1 113 C1 102.11 1 91.22 1 80 C6.61 80 12.22 80 18 80 C16.01185912 72.94915155 16.01185912 72.94915155 13.25 66.1875 C11.88628007 62.71001419 11.7279891 61.45260103 13 58 C13.515625 57.29875 14.03125 56.5975 14.5625 55.875 C16.84485525 51.3102895 16.9883685 46.98360454 16 42 C13.34339998 37.4997486 9.92331231 33.91780189 5 32 C3.68 32 2.36 32 1 32 C1 23.09 1 14.18 1 5 C-1.15303036 5 -3.62879063 7.78103574 -5.1875 9 Z " fill="#FAFCFD" transform="translate(250,121)"/>
<path d="M0 0 C1.06154297 -0.0309375 1.06154297 -0.0309375 2.14453125 -0.0625 C6.69455333 -0.09639216 9.49424392 0.49008947 13.125 3.25 C15.125 5.25 15.125 5.25 15.3203125 7.4140625 C15.25520833 9.69270833 15.19010417 11.97135417 15.125 14.25 C11.165 14.25 7.205 14.25 3.125 14.25 C3.125 12.6 3.125 10.95 3.125 9.25 C1.475 9.25 -0.175 9.25 -1.875 9.25 C-1.875 12.55 -1.875 15.85 -1.875 19.25 C-1.05515625 19.22679687 -0.2353125 19.20359375 0.609375 19.1796875 C2.22585938 19.15261719 2.22585938 19.15261719 3.875 19.125 C4.94234375 19.10179687 6.0096875 19.07859375 7.109375 19.0546875 C10.07522828 19.24677644 11.67704664 19.61421808 14.125 21.25 C15.74669093 24.49338187 15.43455934 28.00193321 15.5 31.5625 C15.53738281 32.32240234 15.57476562 33.08230469 15.61328125 33.86523438 C15.67584968 37.8661378 15.40517444 39.81329085 13.1953125 43.2578125 C8.93631906 46.02128153 5.59709216 45.95336325 0.625 45.8125 C-0.21675781 45.82345703 -1.05851562 45.83441406 -1.92578125 45.84570312 C-6.07519499 45.7966943 -8.32805632 45.59465909 -11.90625 43.33984375 C-15.60293451 39.4157838 -14.95878284 36.44453597 -14.875 31.25 C-10.585 31.25 -6.295 31.25 -1.875 31.25 C-1.875 32.9 -1.875 34.55 -1.875 36.25 C-0.225 36.25 1.425 36.25 3.125 36.25 C3.125 33.28 3.125 30.31 3.125 27.25 C2.23296875 27.29640625 1.3409375 27.3428125 0.421875 27.390625 C-0.74859375 27.42671875 -1.9190625 27.4628125 -3.125 27.5 C-4.86523438 27.56960938 -4.86523438 27.56960938 -6.640625 27.640625 C-9.875 27.25 -9.875 27.25 -12.234375 25.359375 C-15.1390078 21.62484711 -15.12196945 18.52026987 -15.1875 13.9375 C-15.22488281 12.62136719 -15.26226562 11.30523437 -15.30078125 9.94921875 C-14.81569104 5.73471944 -13.90267899 4.15766289 -10.875 1.25 C-7.21649645 0.03049882 -3.81096431 0.02746641 0 0 Z " fill="#1F5185" transform="translate(294.875,285.75)"/>
<path d="M0 0 C0.70382813 -0.020625 1.40765625 -0.04125 2.1328125 -0.0625 C6.89596625 -0.09791378 10.11669408 0.63815638 14.25 3.25 C15.96466036 6.67932071 15.30404056 10.46716065 15.25 14.25 C11.29 14.25 7.33 14.25 3.25 14.25 C3.25 12.6 3.25 10.95 3.25 9.25 C1.6 9.25 -0.05 9.25 -1.75 9.25 C-1.75 12.55 -1.75 15.85 -1.75 19.25 C-0.85796875 19.21519531 0.0340625 19.18039062 0.953125 19.14453125 C2.12359375 19.11746094 3.2940625 19.09039062 4.5 19.0625 C6.24023438 19.01029297 6.24023438 19.01029297 8.015625 18.95703125 C11.25 19.25 11.25 19.25 13.63671875 20.171875 C16.33360174 23.64582597 15.86664876 27.42248924 15.8125 31.6875 C15.83634766 32.54666016 15.86019531 33.40582031 15.88476562 34.29101562 C15.87537397 38.32629637 15.78915372 40.53836048 13.30859375 43.8125 C9.05223261 45.81293538 5.39987945 45.87302676 0.75 45.8125 C-0.09175781 45.83634766 -0.93351562 45.86019531 -1.80078125 45.88476562 C-6.17809192 45.87442552 -8.19488988 45.65345996 -11.82421875 43.015625 C-14.75961954 38.80007985 -14.12454494 36.2689022 -13.75 31.25 C-9.79 31.25 -5.83 31.25 -1.75 31.25 C-1.75 32.9 -1.75 34.55 -1.75 36.25 C-0.1 36.25 1.55 36.25 3.25 36.25 C3.25 33.28 3.25 30.31 3.25 27.25 C2.35796875 27.29640625 1.4659375 27.3428125 0.546875 27.390625 C-0.62359375 27.42671875 -1.7940625 27.4628125 -3 27.5 C-4.74023438 27.56960938 -4.74023438 27.56960938 -6.515625 27.640625 C-9.75 27.25 -9.75 27.25 -12.140625 25.796875 C-14.53324595 22.01049428 -14.33415866 18.64027667 -14.25 14.25 C-14.26546875 13.44304687 -14.2809375 12.63609375 -14.296875 11.8046875 C-14.27123517 7.92025346 -14.25044019 5.906315 -11.84375 2.75 C-7.94101392 -0.04599002 -4.66634926 0.03345053 0 0 Z " fill="#1D4F83" transform="translate(106.75,285.75)"/>
<path d="M0 0 C0.70382812 -0.02900391 1.40765625 -0.05800781 2.1328125 -0.08789062 C7.28526184 -0.15014141 10.15826783 0.92991773 14.25 4.3125 C15.78190797 7.37631594 15.35243613 10.58215866 15.3125 13.9375 C15.291875 16.37125 15.27125 18.805 15.25 21.3125 C9.31 21.3125 3.37 21.3125 -2.75 21.3125 C-2.75 23.2925 -2.75 25.2725 -2.75 27.3125 C-0.77 27.3125 1.21 27.3125 3.25 27.3125 C3.25 25.9925 3.25 24.6725 3.25 23.3125 C7.21 23.3125 11.17 23.3125 15.25 23.3125 C15.25 29.47413774 15.22473389 30.22086217 11.25 34.3125 C7.88386353 35.99556823 4.13566492 35.58135525 0.4375 35.625 C-0.37009766 35.65400391 -1.17769531 35.68300781 -2.00976562 35.71289062 C-2.79673828 35.72126953 -3.58371094 35.72964844 -4.39453125 35.73828125 C-5.10971924 35.75286377 -5.82490723 35.76744629 -6.56176758 35.7824707 C-9.82175638 35.08231691 -11.44880807 33.69224866 -13.75 31.3125 C-14.38110352 28.53515625 -14.38110352 28.53515625 -14.37890625 25.375 C-14.38083984 24.23289062 -14.38277344 23.09078125 -14.38476562 21.9140625 C-14.36091797 20.72554688 -14.33707031 19.53703125 -14.3125 18.3125 C-14.32345703 17.12398438 -14.33441406 15.93546875 -14.34570312 14.7109375 C-14.27147968 5.94267403 -14.27147968 5.94267403 -11.83959961 3.00390625 C-8.03592536 -0.07494118 -4.72359983 0.06348925 0 0 Z " fill="#225386" transform="translate(261.75,295.6875)"/>
<path d="M0 0 C1.31613281 -0.01417969 2.63226563 -0.02835937 3.98828125 -0.04296875 C8.42890565 0.23369106 11.17999981 0.81407249 14.48828125 3.828125 C16.18450918 7.16532913 16.00827405 10.29388956 15.875 13.9375 C15.813125 16.33 15.75125 18.7225 15.6875 21.1875 C9.7475 21.1875 3.8075 21.1875 -2.3125 21.1875 C-2.3125 23.1675 -2.3125 25.1475 -2.3125 27.1875 C-0.3325 27.1875 1.6475 27.1875 3.6875 27.1875 C3.6875 25.8675 3.6875 24.5475 3.6875 23.1875 C7.6475 23.1875 11.6075 23.1875 15.6875 23.1875 C15.6875 29.34913774 15.66223389 30.09586217 11.6875 34.1875 C8.31828823 35.87210589 4.5765138 35.49842974 0.875 35.5625 C0.06740234 35.59988281 -0.74019531 35.63726562 -1.57226562 35.67578125 C-5.56670616 35.73466735 -7.82952096 35.46375408 -11.3515625 33.44921875 C-14.41711061 28.35014968 -13.99782223 23.45739595 -13.875 17.625 C-13.88595703 16.48869141 -13.89691406 15.35238281 -13.90820312 14.18164062 C-13.83414919 5.81354569 -13.83414919 5.81354569 -11.40209961 2.89477539 C-7.68780706 -0.13993051 -4.62221451 0.00440631 0 0 Z " fill="#215286" transform="translate(140.3125,295.8125)"/>
<path d="M0 0 C3.96 0 7.92 0 12 0 C12 8.58 12 17.16 12 26 C13.65 26 15.3 26 17 26 C17 17.42 17 8.84 17 0 C20.96 0 24.92 0 29 0 C29 11.55 29 23.1 29 35 C25.04 35 21.08 35 17 35 C16.67 34.34 16.34 33.68 16 33 C15.34 33.66 14.68 34.32 14 35 C9.91751024 35.60685659 6.17756517 35.61822172 2.5 33.6875 C-0.52865471 30.28026345 -0.11660018 26.70144114 -0.09765625 22.36328125 C-0.09443359 21.06455078 -0.09121094 19.76582031 -0.08789062 18.42773438 C-0.07953531 17.05598892 -0.07107037 15.68424413 -0.0625 14.3125 C-0.05748335 12.92903805 -0.05292073 11.54557437 -0.04882812 10.16210938 C-0.03702529 6.77469605 -0.02056019 3.38736967 0 0 Z " fill="#205185" transform="translate(191,296)"/>
<path d="M0 0 C3.96 0 7.92 0 12 0 C12.33 0.66 12.66 1.32 13 2 C13.66 1.34 14.32 0.68 15 0 C19.98471662 -0.47025629 23.00858706 -0.07908998 27 3 C29.42204038 6.63306058 29.23302891 8.31819023 29.1953125 12.63671875 C29.18886719 13.93544922 29.18242187 15.23417969 29.17578125 16.57226562 C29.1590706 17.94401307 29.14214071 19.31575786 29.125 20.6875 C29.11496674 22.07095718 29.10584149 23.45442127 29.09765625 24.83789062 C29.07404967 28.22543452 29.04112037 31.61263072 29 35 C25.04 35 21.08 35 17 35 C16.505 22.625 16.505 22.625 16 10 C15.01 10 14.02 10 13 10 C12.67 18.25 12.34 26.5 12 35 C8.04 35 4.08 35 0 35 C0 23.45 0 11.9 0 0 Z " fill="#1F5185" transform="translate(347,296)"/>
<path d="M0 0 C4.29 0 8.58 0 13 0 C14.32 5.94 15.64 11.88 17 18 C17.94664028 12.45105819 17.94664028 12.45105819 18.88452148 6.90063477 C19.88888889 1.11111111 19.88888889 1.11111111 21 0 C22.85287502 -0.07226502 24.70833878 -0.0838122 26.5625 -0.0625 C27.57441406 -0.05347656 28.58632813 -0.04445313 29.62890625 -0.03515625 C30.80259766 -0.01775391 30.80259766 -0.01775391 32 0 C31.44388449 6.23467276 30.38765211 11.93980321 28.625 17.9375 C28.39876953 18.72092773 28.17253906 19.50435547 27.93945312 20.31152344 C27.49380112 21.85215135 27.04566163 23.39206247 26.59472656 24.93115234 C26.09446245 26.67139787 25.63253874 28.42260002 25.1796875 30.17578125 C23.74146099 35.6228575 22.00846765 38.99153235 18 43 C15.35541621 44.32229189 13.32238699 44.09677194 10.375 44.0625 C9.37210937 44.05347656 8.36921875 44.04445313 7.3359375 44.03515625 C6.56507813 44.02355469 5.79421875 44.01195312 5 44 C5 41.03 5 38.06 5 35 C8.07617188 34.70703125 8.07617188 34.70703125 11.15234375 34.4140625 C12.06693359 34.20910156 12.06693359 34.20910156 13 34 C13.33 33.34 13.66 32.68 14 32 C12.35 31.67 10.7 31.34 9 31 C7.87467738 27.14592746 6.74979992 23.29172512 5.625 19.4375 C5.30789063 18.35146484 4.99078125 17.26542969 4.6640625 16.14648438 C3.09477194 10.76839485 1.53091928 5.38914514 0 0 Z " fill="#1F5084" transform="translate(312,296)"/>
<path d="M0 0 C2.81992717 1.82120296 4.50345478 3.00690956 6 6 C6.53425235 10.94840293 6.72562764 14.79062061 4.125 19.125 C2 21 2 21 0 21 C0.433125 22.03640625 0.86625 23.0728125 1.3125 24.140625 C1.87536625 25.51026621 2.43784605 26.88006628 3 28.25 C3.28617187 28.93191406 3.57234375 29.61382812 3.8671875 30.31640625 C5.29345494 33.81415735 6 36.16900189 6 40 C-1.59 40 -9.18 40 -17 40 C-14.75 29.875 -14.75 29.875 -12.875 25.4375 C-12.52179688 24.59058594 -12.16859375 23.74367187 -11.8046875 22.87109375 C-11.53914062 22.25363281 -11.27359375 21.63617188 -11 21 C-11.61875 20.731875 -12.2375 20.46375 -12.875 20.1875 C-15 19 -15 19 -17 16 C-17.69920885 11.20310209 -17.71482085 7.22540718 -15.25 3 C-10.30081092 -1.39927918 -6.28753855 -1.58029044 0 0 Z " fill="#F7F9FA" transform="translate(256,158)"/>
<path d="M0 0 C1.20269531 -0.02578125 2.40539062 -0.0515625 3.64453125 -0.078125 C7.51269675 0.28011745 9.89606566 1.22298812 13.1875 3.25 C14.90216036 6.67932071 14.24154056 10.46716065 14.1875 14.25 C10.5575 14.25 6.9275 14.25 3.1875 14.25 C2.8575 12.93 2.5275 11.61 2.1875 10.25 C1.1975 10.25 0.2075 10.25 -0.8125 10.25 C-1.1425 15.53 -1.4725 20.81 -1.8125 26.25 C-0.1625 26.25 1.4875 26.25 3.1875 26.25 C3.1875 24.93 3.1875 23.61 3.1875 22.25 C6.8175 22.25 10.4475 22.25 14.1875 22.25 C14.79469931 29.41495184 14.79469931 29.41495184 12.19921875 32.984375 C8.22001262 35.97781152 5.52897814 35.96719317 0.6875 35.8125 C-0.05886719 35.82345703 -0.80523437 35.83441406 -1.57421875 35.84570312 C-5.48379 35.79380616 -7.41496965 35.5057794 -10.78125 33.33984375 C-15.07377495 28.92349597 -14.07147228 23.79343259 -14.125 17.9375 C-14.15400391 16.89142578 -14.18300781 15.84535156 -14.21289062 14.76757812 C-14.27673068 7.05275284 -14.27673068 7.05275284 -11.98046875 3.08203125 C-8.21506171 -0.09990731 -4.76838381 0.06093781 0 0 Z " fill="#1F5085" transform="translate(393.8125,295.75)"/>
<path d="M0 0 C1.20269531 -0.02578125 2.40539062 -0.0515625 3.64453125 -0.078125 C7.51269675 0.28011745 9.89606566 1.22298812 13.1875 3.25 C14.90216036 6.67932071 14.24154056 10.46716065 14.1875 14.25 C10.5575 14.25 6.9275 14.25 3.1875 14.25 C2.8575 12.93 2.5275 11.61 2.1875 10.25 C1.1975 10.25 0.2075 10.25 -0.8125 10.25 C-1.1425 15.53 -1.4725 20.81 -1.8125 26.25 C-0.1625 26.25 1.4875 26.25 3.1875 26.25 C3.1875 24.93 3.1875 23.61 3.1875 22.25 C6.8175 22.25 10.4475 22.25 14.1875 22.25 C14.79469931 29.41495184 14.79469931 29.41495184 12.19921875 32.984375 C8.22001262 35.97781152 5.52897814 35.96719317 0.6875 35.8125 C-0.05886719 35.82345703 -0.80523437 35.83441406 -1.57421875 35.84570312 C-5.48379 35.79380616 -7.41496965 35.5057794 -10.78125 33.33984375 C-15.07377495 28.92349597 -14.07147228 23.79343259 -14.125 17.9375 C-14.15400391 16.89142578 -14.18300781 15.84535156 -14.21289062 14.76757812 C-14.27673068 7.05275284 -14.27673068 7.05275284 -11.98046875 3.08203125 C-8.21506171 -0.09990731 -4.76838381 0.06093781 0 0 Z " fill="#1F5085" transform="translate(172.8125,295.75)"/>
<path d="M0 0 C3.96 0 7.92 0 12 0 C12.33 0.66 12.66 1.32 13 2 C13.99 1.34 14.98 0.68 16 0 C17.32 0 18.64 0 20 0 C20 3.3 20 6.6 20 10 C17.69 10.66 15.38 11.32 13 12 C12.67 19.59 12.34 27.18 12 35 C8.04 35 4.08 35 0 35 C0 23.45 0 11.9 0 0 Z " fill="#1D4F84" transform="translate(225,296)"/>
<path d="M0 0 C5.94 0 11.88 0 18 0 C18 5.61 18 11.22 18 17 C12.06 17 6.12 17 0 17 C0 11.39 0 5.78 0 0 Z " fill="#289DD7" transform="translate(306,132)"/>
<path d="M0 0 C4.29 0 8.58 0 13 0 C13 4.29 13 8.58 13 13 C8.71 13 4.42 13 0 13 C0 8.71 0 4.42 0 0 Z " fill="#184B81" transform="translate(324,156)"/>
<path d="M0 0 C3.63 0 7.26 0 11 0 C11 3.96 11 7.92 11 12 C7.37 12 3.74 12 0 12 C0 8.04 0 4.08 0 0 Z " fill="#34A3D9" transform="translate(338,136)"/>
<path d="M0 0 C2.31 0 4.62 0 7 0 C7 2.31 7 4.62 7 7 C4.69 7 2.38 7 0 7 C0 4.69 0 2.38 0 0 Z " fill="#366291" transform="translate(347,122)"/>
<path d="M0 0 C1.98 0 3.96 0 6 0 C6 1.98 6 3.96 6 6 C4.02 6 2.04 6 0 6 C0 4.02 0 2.04 0 0 Z " fill="#54B1DF" transform="translate(339,109)"/>
<path d="M0 0 C1.98 0 3.96 0 6 0 C6 1.65 6 3.3 6 5 C4.02 5 2.04 5 0 5 C0 3.35 0 1.7 0 0 Z " fill="#FEFEFF" transform="translate(259,305)"/>
<path d="M0 0 C1.98 0 3.96 0 6 0 C6 1.65 6 3.3 6 5 C4.02 5 2.04 5 0 5 C0 3.35 0 1.7 0 0 Z " fill="#FDFDFE" transform="translate(138,305)"/>
<path d="M0 0 C1.65 0 3.3 0 5 0 C5 1.65 5 3.3 5 5 C3.35 5 1.7 5 0 5 C0 3.35 0 1.7 0 0 Z " fill="#1B4D82" transform="translate(357,137)"/>
</svg>
